# xmcd
#
# Track frame offsets:
#	150
#	17850
#	34344
#	50907
#	66000
#
# Disc length: 1096 seconds
#
# Revision: 0
# Processed by: cddbd v1.5.2PL0 Copyright (c) Steve Scherf et al.
# Submitted via: dBpowerAMP V4.0
#
DISCID=44044605
DTITLE=Various Artist - Today's #1 Hits
DYEAR=2007
DGENRE=Country
TTITLE0=Tim McGraw - When the Stars Go Blue
TTITLE1=Lee Ann Rimes - Probably Wouldn't Be This Way
TTITLE2=Rodney Atkins - If You're Going Through Hell
TTITLE3=Jo Dee Messina - My Give A Damn's Busted
TTITLE4=Steve Holy - Brand New Girlfirend
EXTD=
EXTT0=
EXTT1=
EXTT2=
EXTT3=
EXTT4=
PLAYORDER=
